# xmcd CD database file
#
# Track frame offsets:
#	150
#	16587
#	31450
#	48500
#	60675
#	77100
#	105175
#	119762
#	135200
#	149137
#	160937
#	175637
#	195337
#	209550
#	230687
#	250950
#	264212
#	280900
#
# Disc length: 3926 seconds
#
# Revision: 0
# Processed by: cddbd v1.5.2PL0 Copyright (c) Steve Scherf et al.
# Submitted via: CDex 1.70beta2
#
DISCID=f80f5412
DTITLE=Jerry Lee Lewis - I Can't Stop Loving You
DYEAR=1900
DGENRE=Country
TTITLE0=You Win Again
TTITLE1=What's Made Milwaukee Famous
TTITLE2=I Can't Stop Loving You
TTITLE3=Your Cheatin Heart
TTITLE4=Middle Age Crazy
TTITLE5=Mexicale Rose
TTITLE6=Bottles and Barstools
TTITLE7=Cold Cold Heart
TTITLE8=Another Place Another Time
TTITLE9=I'll Find It Where I Can
TTITLE10=Careless Hands
TTITLE11=There Must Be More To Love Than This
TTITLE12=Touching Home
TTITLE13=You Are My Sunshine
TTITLE14=Thirty Nine and Holding
TTITLE15=Hey Good Looking
TTITLE16=She Even Woke Me Up To Say Goodbye
TTITLE17=Will The Circle Be Unbroken
EXTD=
EXTT0=
EXTT1=
EXTT2=
EXTT3=
EXTT4=
EXTT5=
EXTT6=
EXTT7=
EXTT8=
EXTT9=
EXTT10=
EXTT11=
EXTT12=
EXTT13=
EXTT14=
EXTT15=
EXTT16=
EXTT17=
PLAYORDER=
